<?xml version="1.0" encoding="utf-8"?>
<!-- Generator: Adobe Illustrator 16.0.0, SVG Export Plug-In . SVG Version: 6.00 Build 0)  -->
<!DOCTYPE svg PUBLIC "-//W3C//DTD SVG 1.1//EN" "http://www.w3.org/Graphics/SVG/1.1/DTD/svg11.dtd">
<svg version="1.1" id="Layer_1" xmlns="http://www.w3.org/2000/svg" xmlns:xlink="http://www.w3.org/1999/xlink" x="0px" y="0px"
	 width="137.667px" height="198.165px" viewBox="0 0 137.667 198.165" enable-background="new 0 0 137.667 198.165"
	 xml:space="preserve">
<g>
	<path d="M64.047,59.341c1.776,1.597,3.579,3.254,5.4,4.969c20.866,19.645,33.786,37.002,36.96,44.816
		c4.943,12.169,4.863,23.848-0.238,34.712c-4.87,10.372-14.274,19.111-24.071,22.411c-6.607,1.704-10.312,1.831-15.53,1.831
		c-0.757,0-1.522-0.003-2.304-0.007l-0.49-0.002l-0.49,0.017c-0.479,0.016-0.952,0.025-1.406,0.025c-7.2,0-9.48-1.722-15.574-6.322
		l-0.121-0.091c-9.727-7.343-13-14.742-11.674-26.39c1.578-13.865,9.367-30.501,16.898-46.589
		C56.135,78.621,60.676,68.922,64.047,59.341 M30.487,6.352C35.06,14.738,46.74,26.921,43.19,41.919
		c-9.602,40.565-63.423,100.965-12.068,139.732c7.45,5.624,15.096,11.46,30.757,11.46c0.735,0,1.49-0.013,2.262-0.039
		c0.824,0.004,1.63,0.008,2.428,0.008c6.822,0,12.921-0.268,22.574-2.832c29.524-9.36,58.182-46.823,40.427-90.53
		C118.028,71.305,59.514,16.295,30.487,6.352L30.487,6.352z"/>
</g>
</svg>
